<svg xmlns="http://www.w3.org/2000/svg" xmlns:xlink="http://www.w3.org/1999/xlink" viewBox="0 0 59 44.25"><defs><style>.cls-1{fill:url(#linear-gradient);}</style><linearGradient id="linear-gradient" x1="-411.91" y1="585.88" x2="-411.91" y2="584.88" gradientTransform="matrix(59, 0, 0, -44.25, 24332.06, 25925.6)" gradientUnits="userSpaceOnUse"><stop offset="0" stop-color="#7072c6"/><stop offset="1" stop-color="#43458f"/><stop offset="1" stop-color="#1c1e61"/></linearGradient></defs><g id="Layer_2" data-name="Layer 2"><g id="Layer_1-2" data-name="Layer 1"><path id="check" class="cls-1" d="M22.12,44.25A7.3,7.3,0,0,1,17,42L2.21,27.29A7.13,7.13,0,0,1,2,17.21L2.21,17a7.14,7.14,0,0,1,10.08-.25l.25.25,9.58,9.59L46.46,2.21A7.13,7.13,0,0,1,56.54,2l.25.24A7.13,7.13,0,0,1,57,12.29l-.24.25L27.29,42A7.3,7.3,0,0,1,22.12,44.25Z"/></g></g></svg>