<svg xmlns="http://www.w3.org/2000/svg" viewBox="0 0 35.74 57.45"><defs><style>.cls-1{fill:#65a7dd;}.cls-2{fill:#272425;}</style></defs><g id="Layer_2" data-name="Layer 2"><g id="Layer_1-2" data-name="Layer 1"><g id="Group_1632" data-name="Group 1632"><g id="Group_1492" data-name="Group 1492"><g id="colour"><g id="Group_1491" data-name="Group 1491"><path id="Path_3091" data-name="Path 3091" class="cls-1" d="M25.86,42.66V8.71A.85.85,0,0,0,25,7.86h0a.86.86,0,0,0-.86.85h0v34a5.46,5.46,0,1,0,1.73,0Z"/></g></g><g id="OBJECT"><path id="Path_3092" data-name="Path 3092" class="cls-2" d="M19.87,16.06V39.74a9.63,9.63,0,1,0,13.31,2.84,9.38,9.38,0,0,0-2.84-2.84V9.41a23.88,23.88,0,0,0-.12-4.14C29.46,1.2,23.37.64,21,3.4c-1.26,1.44-1.09,3.28-1.09,5Zm1.47,24.06v-31c0-1.51-.26-3.3.62-4.62,1-1.5,3.8-1.66,5.3-.9a3.2,3.2,0,0,1,1.6,3V40.14a.7.7,0,0,0,.23.53l.14.1A8.15,8.15,0,1,1,17.46,45a8,8,0,0,1,2-3.07c.49-.47,1.84-1,1.84-1.76Z"/><path id="Path_3093" data-name="Path 3093" class="cls-2" d="M31.87,14.9h3.26a.61.61,0,0,0,0-1.22H31.87a.61.61,0,0,0-.58.64A.62.62,0,0,0,31.87,14.9Z"/><path id="Path_3094" data-name="Path 3094" class="cls-2" d="M31.87,22.14h3.26a.61.61,0,1,0,0-1.21H31.87a.61.61,0,1,0,0,1.21Z"/><path id="Path_3095" data-name="Path 3095" class="cls-2" d="M31.87,30h3.26a.61.61,0,1,0,0-1.21H31.87a.61.61,0,1,0,0,1.21Z"/><path id="Path_3096" data-name="Path 3096" class="cls-2" d="M.73,8.51l3.4-.78.14-.05,4.39,2.74L4.3,13.28l-.07,0L.82,12.55c-.74-.16-1,1-.31,1.13l2.41.5L1.07,15.39c-.63.41,0,1.43.59,1l1.93-1.26-.48,2.34c-.16.74,1,1.05,1.13.31l.7-3.36a1.09,1.09,0,0,0,0-.18L9.1,11.53v4.85L9,16.44,6.55,18.91a.6.6,0,0,0,0,.83.58.58,0,0,0,.78,0L9.1,18v2.24a.59.59,0,0,0,1.17,0V18L12,19.7a.6.6,0,0,0,.83-.05.58.58,0,0,0,0-.78l-2.43-2.43-.12-.09V11.43l4.25,2.66a.59.59,0,0,0,0,.13l.78,3.39c.17.74,1.3.43,1.13-.31L15.91,15l1.92,1.2c.64.4,1.23-.61.59-1L16.5,14l2.39-.55c.74-.17.43-1.3-.31-1.13L15.24,13l-.13,0L10.83,10.4,15.1,7.61h0l3.36.7c.73.15,1.05-1,.31-1.13L16.48,6.7l1.67-1.09c.63-.41,0-1.43-.6-1L15.77,5.77l.5-2.43c.15-.73-1-1-1.13-.31l-.71,3.41a.45.45,0,0,0,0,.2L10.27,9.36V4.23l.06-.05,2.43-2.43a.6.6,0,0,0,0-.83.58.58,0,0,0-.78,0L10.27,2.58v-2A.59.59,0,0,0,9.66,0,.58.58,0,0,0,9.1.56v2.1L7.32.89a.59.59,0,0,0-.83,0,.6.6,0,0,0,0,.79L9,4.18a.71.71,0,0,0,.14.1v5L4.84,6.64s0-.06,0-.1L4.06,3.2c-.17-.73-1.3-.42-1.13.32l.52,2.26L1.72,4.69c-.65-.4-1.24.61-.6,1L2.89,6.81.42,7.38C-.32,7.55,0,8.68.73,8.51Z"/></g></g></g></g></g></svg>