<svg xmlns="http://www.w3.org/2000/svg" viewBox="0 0 38.59 27.92"><defs><style>.cls-1{fill:#fff;}</style></defs><g id="Layer_2" data-name="Layer 2"><g id="Layer_1-2" data-name="Layer 1"><path id="_1181190_email_gmail_google_mail_icon" data-name=" 1181190 email gmail google mail icon" class="cls-1" d="M38.59,4.08h0V3.16A3.17,3.17,0,0,0,35.43,0H3.16A3.17,3.17,0,0,0,0,3.16v21.6a3.16,3.16,0,0,0,3.16,3.16H34.21c3.31,0,4.31-.85,4.38-3.15ZM33.07.78,19.24,11,5.5.78Zm-28,7.91,12.81,8.83h0L5.06,26.45ZM5.4,27.15,18.57,18l.23.16a.77.77,0,0,0,.44.14,3.19,3.19,0,0,0,.68-.3l13.17,9.15Zm28-.71L20.6,17.53l7.15-4.93,5.67-3.91Z"/></g></g></svg>