<svg xmlns="http://www.w3.org/2000/svg" viewBox="0 0 197.27 197.27"><defs><style>.cls-1,.cls-3{fill:#fff;}.cls-1{stroke:#004c90;stroke-miterlimit:10;stroke-width:3px;}.cls-2{fill:#004c90;}</style></defs><g id="Layer_2" data-name="Layer 2"><g id="Layer_1-2" data-name="Layer 1"><g id="Layer_1-3" data-name="Layer 1"><circle id="Ellipse_23" data-name="Ellipse 23" class="cls-1" cx="98.64" cy="98.64" r="97.14"/><circle id="Ellipse_24" data-name="Ellipse 24" class="cls-2" cx="98.64" cy="98.64" r="66.49"/><path id="Path_3377" data-name="Path 3377" class="cls-3" d="M142.18,82.17a12.14,12.14,0,0,0-4.61-5.53c-6-3.81-15.13-4.08-21.3-.64A12.38,12.38,0,0,0,110,84.62c-1.25,5.75-.93,12.59,3.5,16.9,5.16,4.52,12.68,5.53,19.36,3.67a9.42,9.42,0,0,0,2-.68l.2-.09a13.64,13.64,0,0,0,5.53-4.17C144,95.26,144.26,87.79,142.18,82.17ZM131.3,95.08a3.55,3.55,0,0,1-2.12,2.64,7.25,7.25,0,0,1-6-.36c-1.43-1-1.62-2.67-1.8-4.26-.14-3.12-.37-6.43.51-9.29.68-1.77,2.58-2.22,4.29-2.36s3.54.28,4.65,1.73a8.06,8.06,0,0,1,.79,3.62A55.87,55.87,0,0,1,131.3,95.08Z"/><path id="Path_3378" data-name="Path 3378" class="cls-3" d="M76.65,97.89c-1.52-.09-3.22,0-4.7-.14l0-15.9.09-.13,4.55,0c0-2.58.09-5.35,0-7.7l-17.38,0-2.86,0c0,2.4,0,5.21,0,7.65,1.57,0,3,0,4.55.15v15.4l0,.64-4.55.09c-.1,2.53-.1,5,0,7.47H76.64Z"/><path id="Path_3379" data-name="Path 3379" class="cls-3" d="M127.83,108.76a34.87,34.87,0,0,1-7,7.52c-.1.15-.37.09-.46,0-1.16-.72-2.4-1.31-3.51-2a37.92,37.92,0,0,0,4-5.5h-1.43a32.12,32.12,0,0,1-3.89,5,49.94,49.94,0,0,0-6-2.09l-.23-.17a23.34,23.34,0,0,0,1.1-2.69H109.2L108,111.16a60.5,60.5,0,0,0-8.48-1.08c-.15-.42,0-1-.15-1.37H98.14c-.11.55.13,1-.15,1.42a52.83,52.83,0,0,0-8.3,1l-1.24-2.42a4.3,4.3,0,0,0-1.29.05l1.16,2.68-.14.13a59.32,59.32,0,0,0-6.09,2.13l-.18-.09a37.43,37.43,0,0,1-3.56-4.48c-.22-.78-1.15-.32-1.65-.42a38.36,38.36,0,0,0,4,5.58A41.47,41.47,0,0,1,77,116.42a32.91,32.91,0,0,1-7.28-7.66,5.24,5.24,0,0,0-1.48,0,36.12,36.12,0,0,0,13.88,12.37s0,0,0,0,.13.08,0,.13a38.26,38.26,0,0,0,11.62,3.59,36.31,36.31,0,0,0,35.51-16,9,9,0,0,0-1.47,0Zm-19.22,4.09.14-.1a25.86,25.86,0,0,1,5.63,1.94,28.35,28.35,0,0,1-5.12,4.35c-1.06.64-2.12,1.33-3.23,1.86l-2-.86.14-.31a57.25,57.25,0,0,0,4.43-6.89Zm-9.1-1.37a36.62,36.62,0,0,1,7.74.91l0,.14a47.07,47.07,0,0,1-4.66,7,12.78,12.78,0,0,1-2.3-.27l-.79-.1c-.11-2.68-.16-5,0-7.71Zm-8.89.83a40.57,40.57,0,0,1,7.45-.83l.05,7.67c-1,.22-2,.22-3,.45a41.09,41.09,0,0,1-4.79-7.12Zm-7.45,2.45a30.58,30.58,0,0,1,5.62-2l.19,0a70.79,70.79,0,0,0,4.66,7.2c-.64.37-1.43.59-2.07.95a31.08,31.08,0,0,1-8.4-6.07Zm6,7.75a32.78,32.78,0,0,1-10.79-5.08v-.14a27.7,27.7,0,0,1,3.41-1.9,46.68,46.68,0,0,0,8.3,6.39,3.39,3.39,0,0,1-.88.72Zm17.1.58A35,35,0,0,1,91,123c-.1-.23.23-.28.37-.42,4.28-2.76,11-2.76,15.17.22.17.27-.2.18-.29.27Zm4.43-1.24-2.16.68a5.26,5.26,0,0,1-1-.73l.09-.13a41.25,41.25,0,0,0,8.16-6.3,17.72,17.72,0,0,1,3.55,1.94,31,31,0,0,1-8.58,4.5Z"/><path id="Path_3380" data-name="Path 3380" class="cls-3" d="M69.6,70.47A39.91,39.91,0,0,1,73.33,66a23.27,23.27,0,0,1,3.6-3c1.2.77,2.53,1.41,3.68,2.14a39.91,39.91,0,0,0-4,5.43,2.69,2.69,0,0,0,1.38,0,35.56,35.56,0,0,1,3.88-4.85c2,.73,3.92,1.49,6,2l.18.18-1.15,2.63a4.24,4.24,0,0,0,1.33,0c.42-.77.74-1.63,1.2-2.4a46.11,46.11,0,0,0,8.36,1c.36.32.09,1,.22,1.4h1.25c.13-.45,0-1,.13-1.36a44.91,44.91,0,0,0,8.08-1l.22,0,1.25,2.35a3,3,0,0,0,1.3-.09l-1.16-2.62.1-.1a52,52,0,0,0,6.13-2.18,44.12,44.12,0,0,1,4,5,4.59,4.59,0,0,0,1.38-.09,19.42,19.42,0,0,0-2-2.86,21.61,21.61,0,0,0-2-2.44v-.23L119.86,63l.47-.18a34,34,0,0,1,7.29,7.56c.56,0,1,.19,1.48,0a36.48,36.48,0,0,0-27.39-16l0,.08-.1-.08a20.81,20.81,0,0,0-4.1-.06,9.78,9.78,0,0,0-1.71.06A36.11,36.11,0,0,0,68.13,70.5,4.53,4.53,0,0,0,69.6,70.47Zm19.14-4-.19,0a36.91,36.91,0,0,1-5.49-1.85l.09-.28a36.33,36.33,0,0,1,8.16-5.93c.7.27,1.39.5,2.07.83l-.13.35a58.53,58.53,0,0,0-4.51,6.84Zm9.17,1.22a16.54,16.54,0,0,1-3.72-.14,24.34,24.34,0,0,1-4.06-.73,41.17,41.17,0,0,1,4.8-7.1l3,.42c.11,2.33,0,5.06,0,7.55Zm1.43.05c-.09-2.41,0-5.08,0-7.57l2.86-.42A39,39,0,0,1,107,66.84,33.08,33.08,0,0,1,99.34,67.76Zm14.71-3.17a30.83,30.83,0,0,1-5.63,1.9,75.46,75.46,0,0,0-4.75-7.13c.65-.35,1.44-.62,2.13-1a32.75,32.75,0,0,1,8.35,6.06Zm-5.9-7.76A33.12,33.12,0,0,1,119,61.91l-.1.18-3.18,1.77h-.23a39.68,39.68,0,0,0-8.21-6.25c.09-.32.56-.55.87-.78Zm-1.85-.45v.09a14.07,14.07,0,0,1-14.75.5c-.24-.18-.7-.27-.74-.59a34.66,34.66,0,0,1,15.5,0ZM78.16,62a33.22,33.22,0,0,1,9.55-4.8c.14-.14.23-.27.41-.27V57c.38.09.65-.32,1-.05s.6.41.83.64A46.39,46.39,0,0,0,81.67,64a15.47,15.47,0,0,1-3.51-1.9Z"/><path id="Path_3381" data-name="Path 3381" class="cls-3" d="M98,98.25a12.24,12.24,0,0,1-12.17-3c-.37-.46-.6-1-1-1.44l-6.21,0c-.1,3.67-.14,7.88,0,11.51l6.91-.05.09-2.17c.79.36,1.58.83,2.36,1.22,4.8,2,11,2.45,15.73,0a9.33,9.33,0,0,0,4.8-9.52c-.5-3.85-4.2-7.34-7.93-8.28L89.38,83.35l-.83-.41A1.28,1.28,0,0,1,88,81.7c.88-1.5,2.9-1,4.43-1,3.23.45,6.55,1.54,8.44,4.49,2,0,4.38,0,6.59,0,.1-3.73,0-7-.09-10.74-2.07-.05-4.61-.05-6.68,0a8.82,8.82,0,0,1-.14,1.85l-2.12-1.13c-5.08-2.13-12.18-2.35-16.79,1-3,2.18-3.92,6.08-3.13,9.52.6,3.26,3.72,5.66,6.73,6.8,4.1,1.45,8.39,2.48,12.54,3.9.42.18,1,.59.88,1.09S98.28,98.07,98,98.25Z"/><path id="Path_3382" data-name="Path 3382" class="cls-3" d="M66.07,142.54c0,2.19-1.21,3.38-3.76,3.38s-3.66-1.19-3.66-3.27v-.33H61v.46a1.12,1.12,0,0,0,1,1.28.92.92,0,0,0,.33,0c.87,0,1.36-.35,1.36-1.59v-2.36h0a2.34,2.34,0,0,1-2.24,1.14c-1.81,0-2.73-1.06-2.73-3V135.9c0-2.07,1.32-3.26,3.73-3.26s3.72,1.19,3.72,3.26Zm-2.46-4.43v-2.33a1.28,1.28,0,0,0-2.55,0v2.33a1.28,1.28,0,0,0,1.24,1.31,1.27,1.27,0,0,0,1.31-1.24v-.07Z"/><path id="Path_3383" data-name="Path 3383" class="cls-3" d="M67.51,135.9c0-2.07,1.32-3.26,3.73-3.26S75,133.82,75,135.9v6.75c0,2.07-1.32,3.27-3.72,3.27s-3.73-1.19-3.73-3.27ZM70,142.78a1.28,1.28,0,0,0,2.55.08v-7.08A1.28,1.28,0,0,0,70,135.7v7.08Z"/><path id="Path_3384" data-name="Path 3384" class="cls-3" d="M76.35,135.9c0-2.07,1.32-3.26,3.73-3.26s3.73,1.18,3.73,3.26v6.75c0,2.07-1.32,3.27-3.73,3.27s-3.73-1.19-3.73-3.27Zm2.46,6.88a1.28,1.28,0,0,0,2.55.08v-7.08a1.28,1.28,0,0,0-2.55-.08v7.08Z"/><path id="Path_3385" data-name="Path 3385" class="cls-3" d="M86.93,134.42c1.9,0,2.32-.76,2.7-1.63h1.65v13H88.83v-9.9h-1.9Z"/><path id="Path_3386" data-name="Path 3386" class="cls-3" d="M96.63,136.74v2H94.26v-2Zm0,7.06v2H94.26v-2Z"/><path id="Path_3387" data-name="Path 3387" class="cls-3" d="M102,134.49a1.13,1.13,0,0,0-1.28.95,1.82,1.82,0,0,0,0,.33v1.39H98.42V135.9c0-2.07,1.24-3.26,3.67-3.26s3.66,1.18,3.66,3.26c0,1.73-.76,3.12-3,5.14-1.45,1.3-1.85,1.91-1.85,2.6a.82.82,0,0,0,0,.27h4.65v1.86H98.42v-1.59c0-1.45.62-2.54,2.46-4.14s2.41-2.68,2.41-4.07C103.29,134.81,102.8,134.49,102,134.49Z"/><path id="Path_3388" data-name="Path 3388" class="cls-3" d="M107.07,135.9c0-2.07,1.32-3.26,3.73-3.26s3.72,1.18,3.72,3.26v6.75c0,2.07-1.32,3.27-3.72,3.27s-3.73-1.19-3.73-3.27Zm2.46,6.88a1.28,1.28,0,0,0,2.55.08v-7.08a1.28,1.28,0,0,0-2.55-.08v7.08Z"/><path id="Path_3389" data-name="Path 3389" class="cls-3" d="M117.65,134.42c1.9,0,2.32-.76,2.7-1.63H122v13h-2.46v-9.9h-1.9Z"/><path id="Path_3390" data-name="Path 3390" class="cls-3" d="M127.19,141.59v1.2a1.28,1.28,0,0,0,2.55,0v-2.86a1.28,1.28,0,0,0-2.55-.07v.46h-2.32l.44-7.53h6.49v1.85h-4.28l-.2,3.1h.05a2.42,2.42,0,0,1,2.12-.94c1.81,0,2.73,1,2.73,3v2.9c0,2.07-1.25,3.27-3.67,3.27s-3.66-1.19-3.66-3.27v-1.07Z"/><path id="Path_3391" data-name="Path 3391" class="cls-2" d="M47.35,39.07l1.78,1.8C51.26,43,51.2,45.55,48.67,48s-5,2.55-7.17.38l-7-7c-2.14-2.16-2.07-4.68.45-7.17s5-2.54,7.18-.38l1.3,1.31-2.42,2.4-1.44-1.45A1.87,1.87,0,0,0,37,38.73h0L44.2,46a1.86,1.86,0,0,0,2.65-2.62l-1.91-1.94Z"/><path id="Path_3392" data-name="Path 3392" class="cls-2" d="M54.34,29.22l4.2-2.6L60,28.93l-4.2,2.6,2.94,4.73L64,33l1.43,2.3-8.34,5.18-10-16.14,8.34-5.17,1.43,2.3-5.28,3.28Z"/><path id="Path_3393" data-name="Path 3393" class="cls-2" d="M77.94,30.32a5,5,0,0,1-1.06-2.11l-1-2.83c-.56-1.66-1.45-2.07-3-1.54l-1.17.42,2.48,7.33-3.4,1.13-6.1-18L69.88,13c3.53-1.19,5.51-.34,6.44,2.44l.48,1.41a3.62,3.62,0,0,1-1,4.38v.06c1.91,0,2.9,1.16,3.55,3l.94,2.78a4.64,4.64,0,0,0,1.11,2.07ZM69,16.14l1.87,5.53,1.33-.45c1.28-.41,1.9-1.15,1.4-2.6L73,16.85c-.41-1.28-1.15-1.67-2.36-1.26Z"/><path id="Path_3394" data-name="Path 3394" class="cls-2" d="M84.14,9.29,95.22,8.2l.26,2.7-3.74.36,1.6,16.21-3.59.36-1.6-16.19L84.43,12Z"/><path id="Path_3395" data-name="Path 3395" class="cls-2" d="M104.55,8.48l3.59.3-1.6,18.93-3.59-.3Z"/><path id="Path_3396" data-name="Path 3396" class="cls-2" d="M119.66,19.46l4.48,1.24-.72,2.62-4.48-1.24-2.07,7.57-3.47-1,5-18.32,9.17,2.51-.72,2.62-5.71-1.57Z"/><path id="Path_3397" data-name="Path 3397" class="cls-2" d="M136.39,16.53l3.23,1.57-8.27,17.1-3.24-1.57Z"/><path id="Path_3398" data-name="Path 3398" class="cls-2" d="M146.78,31.84l4,2.95L149.13,37l-4-2.95-3.31,4.47,5,3.72-1.62,2.18-7.88-5.85,11.33-15.28,7.86,5.86-1.62,2.18-5-3.72Z"/><path id="Path_3399" data-name="Path 3399" class="cls-2" d="M164.1,36.16l3.68,4.34c2.33,2.74,2.21,5.16-.11,7.13l-7.33,6.21c-2.32,2-4.73,1.69-7-1.06l-3.68-4.34Zm.25,4.5L154,49.43,155.32,51a1.6,1.6,0,0,0,2.21.53,1.75,1.75,0,0,0,.39-.33l7.53-6.39a1.59,1.59,0,0,0,.22-2.59Z"/><path id="Path_3400" data-name="Path 3400" class="cls-2" d="M43.63,161l-2,1.73c-2.43,2.07-5.07,1.82-7.5-1s-2.3-5.47.12-7.56l7.86-6.78c2.42-2.09,5.07-1.83,7.5,1s2.3,5.47-.12,7.56L48,157.22l-2.34-2.71,1.62-1.4a2,2,0,1,0-2.56-3h0l-8.18,7a2,2,0,0,0,2.56,3l2.17-1.87Z"/><path id="Path_3401" data-name="Path 3401" class="cls-2" d="M55.27,161c1.77-2.66,4.47-3.06,7.56-1s3.78,4.7,2,7.37l-5.75,8.66c-1.77,2.66-4.48,3.06-7.57,1s-3.78-4.7-2-7.37ZM52.55,172a2,2,0,1,0,3.26,2.18v0l6-8.95A2,2,0,0,0,58.53,163h0Z"/><path id="Path_3402" data-name="Path 3402" class="cls-2" d="M77.44,182.4h.07l6.25-13,5.07,1.41-5.34,19.26-3.45-1,3.83-13.81h-.06l-6.29,13.13-3.45-1,1.13-14.36-.07,0-3.78,13.62-3.18-.88,5.34-19.26L78.59,168Z"/><path id="Path_3403" data-name="Path 3403" class="cls-2" d="M107.4,175.73l.1,2.6c.11,3.2-1.68,5-5.46,5.15l-1.79.06.28,7.51-3.79.14-.74-20,5.57-.2C105.35,170.87,107.28,172.54,107.4,175.73Zm-7.51-1.81.25,6.77,1.79-.07c1.2,0,1.84-.53,1.79-2l-.12-3c0-1.43-.72-1.86-1.93-1.82Z"/><path id="Path_3404" data-name="Path 3404" class="cls-2" d="M130.54,185.14l-3.64,1.15L125.18,183l-4.43,1.4.47,3.65-3.31,1-2.34-20.22,5.29-1.66Zm-10.15-3.44,3.49-1.1-4.75-9.11-.07,0Z"/><path id="Path_3405" data-name="Path 3405" class="cls-2" d="M136,165.94l-.06,0L144,178l-2.82,1.91L130,163.34l3.94-2.66,9.86,7.77.06,0-6.7-9.91,2.79-1.89,11.2,16.56-3.22,2.17Z"/><path id="Path_3406" data-name="Path 3406" class="cls-2" d="M157.73,157.58l-13.34-4.87,2.53-3,8.84,3.63,0-.06-5.18-8,2.31-2.78,7.22,12.22,5.1,4.24-2.42,2.9Z"/></g></g></g></svg>