<svg xmlns="http://www.w3.org/2000/svg" viewBox="0 0 24.88 46.14"><defs><style>.cls-1{fill:#fff;}</style></defs><g id="Layer_2" data-name="Layer 2"><g id="Layer_1-2" data-name="Layer 1"><path id="Path_3410" data-name="Path 3410" class="cls-1" d="M23.4,39.15H1.47V3.61H23.4ZM10.73,42.76a1.76,1.76,0,1,1,1.75,1.77,1.75,1.75,0,0,1-1.75-1.77h0m14.14,1.6h0V1.77h0A1.76,1.76,0,0,0,23.1,0H1.77A1.76,1.76,0,0,0,0,1.76H0v42.6H0v.06a1.75,1.75,0,0,0,1.79,1.72H23.13a1.74,1.74,0,0,0,1.75-1.72v-.06"/></g></g></svg>