<svg xmlns="http://www.w3.org/2000/svg" viewBox="0 0 43.47 43.47"><defs><style>.cls-1{fill:#4a5568;fill-rule:evenodd;}</style></defs><g id="Layer_2" data-name="Layer 2"><g id="Layer_1-2" data-name="Layer 1"><g id="Group_1633" data-name="Group 1633"><path id="_7122446_rupee_currency_icon" data-name=" 7122446 rupee currency icon" class="cls-1" d="M21.74,43.47A21.74,21.74,0,1,0,0,21.74H0A21.73,21.73,0,0,0,21.74,43.47ZM13.59,8.15a2.72,2.72,0,0,0,0,5.44H16.3A5.42,5.42,0,0,1,21,16.3H13.59a2.72,2.72,0,1,0,0,5.43H21a5.43,5.43,0,0,1-4.71,2.72H13.59a2.72,2.72,0,0,0-1.93,4.64l8.15,8.15a2.72,2.72,0,0,0,3.85-3.84l-4-4a10.94,10.94,0,0,0,7.2-7.63h3.06a2.72,2.72,0,0,0,0-5.44H26.83a11,11,0,0,0-1.11-2.71h4.17a2.72,2.72,0,0,0,0-5.44Z"/></g></g></g></svg>