<svg xmlns="http://www.w3.org/2000/svg" viewBox="0 0 38.27 38.26"><defs><style>.cls-1{fill:#fff;}</style></defs><g id="Layer_2" data-name="Layer 2"><g id="Layer_1-2" data-name="Layer 1"><path id="_211830_telephone_icon" data-name=" 211830 telephone icon" class="cls-1" d="M36.52,27.76c-1.59-1.63-6.1-4.68-9.05-4.68a3.27,3.27,0,0,0-1.78.46,9.7,9.7,0,0,1-3.15,1.65c-.3,0-.63-.28-1.35-.9l-.12-.1a40.75,40.75,0,0,1-3.18-3l-.2-.21-.38-.39c-.68-.7-1.16-1.2-2.89-3.15l-.08-.09c-.82-.93-1.37-1.54-1.4-2s.35-1.14,1.32-2.46c1.17-1.58,1.21-3.54.14-5.81a26.09,26.09,0,0,0-3.5-5L10.79,2A4.68,4.68,0,0,0,7.11,0,6.52,6.52,0,0,0,3.63,1.26l-.17.11A7,7,0,0,0,.44,5c-.62,2-1,4.62,1.94,10A48.59,48.59,0,0,0,11,26.67a52.09,52.09,0,0,0,8.48,7.21c3.85,2.79,7.55,4.38,10.13,4.38,2.4,0,4.3,0,7-3.25C39.39,31.6,38.22,29.51,36.52,27.76Z"/></g></g></svg>