<svg xmlns="http://www.w3.org/2000/svg" viewBox="0 0 45.28 45.49"><defs><style>.cls-1{fill:#fff;fill-rule:evenodd;}</style></defs><g id="Layer_2" data-name="Layer 2"><g id="Layer_1-2" data-name="Layer 1"><g id="_843786_whatsapp_icon" data-name=" 843786 whatsapp icon"><path id="Path_3407" data-name="Path 3407" class="cls-1" d="M38.68,6.6A22.55,22.55,0,0,0,3.2,33.8L0,45.49l12-3.14a22.54,22.54,0,0,0,10.77,2.74h0a22.55,22.55,0,0,0,16-38.49ZM22.73,41.29h0a18.72,18.72,0,0,1-9.54-2.61l-.68-.41-7.1,1.86,1.9-6.91-.45-.72a18.75,18.75,0,1,1,15.87,8.78Z"/><path id="Path_3408" data-name="Path 3408" class="cls-1" d="M33,27.25c-.56-.28-3.33-1.64-3.85-1.83s-.89-.28-1.26.28-1.46,1.84-1.79,2.21-.65.43-1.22.14a15.39,15.39,0,0,1-4.53-2.8,16.62,16.62,0,0,1-3.13-3.9c-.33-.56,0-.87.25-1.15s.56-.65.84-1a3.9,3.9,0,0,0,.56-.94,1,1,0,0,0,0-1c-.15-.28-1.27-3-1.74-4.18s-.92-.95-1.27-1-.7,0-1.08,0a2.07,2.07,0,0,0-1.5.7,6.32,6.32,0,0,0-2,4.7c0,2.77,2,5.45,2.3,5.83s4,6.06,9.62,8.5A33.4,33.4,0,0,0,26.41,33a7.76,7.76,0,0,0,3.55.22c1.08-.16,3.33-1.36,3.8-2.68a4.73,4.73,0,0,0,.33-2.68C34,27.68,33.58,27.54,33,27.25Z"/></g></g></g></svg>